<svg width="33" height="33" viewBox="0 0 33 33" fill="none" xmlns="http://www.w3.org/2000/svg">
<g clip-path="url(#clip0_1210_2976)">
<path d="M30.5957 -0.00012207H2.922C1.59635 -0.00012207 0.524414 1.04644 0.524414 2.34038V30.1283C0.524414 31.4222 1.59635 32.4751 2.922 32.4751H30.5957C31.9214 32.4751 32.9997 31.4222 32.9997 30.1346V2.34038C32.9997 1.04644 31.9214 -0.00012207 30.5957 -0.00012207ZM10.1592 27.6736H5.33862V12.1718H10.1592V27.6736ZM7.74889 10.0596C6.20124 10.0596 4.9517 8.81006 4.9517 7.26875C4.9517 5.72745 6.20124 4.47791 7.74889 4.47791C9.29019 4.47791 10.5397 5.72745 10.5397 7.26875C10.5397 8.80371 9.29019 10.0596 7.74889 10.0596ZM28.1981 27.6736H23.3839V20.1383C23.3839 18.3433 23.3522 16.0282 20.8785 16.0282C18.3731 16.0282 17.9925 17.9881 17.9925 20.0115V27.6736H13.1847V12.1718H17.8023V14.2903H17.8657C18.5063 13.0724 20.0793 11.7848 22.4198 11.7848C27.2975 11.7848 28.1981 14.9943 28.1981 19.1679V27.6736V27.6736Z" fill="black"/>
</g>
<defs>
<clipPath id="clip0_1210_2976">
<rect width="32.4752" height="32.4752" fill="white" transform="translate(0.524414 -0.00012207)"/>
</clipPath>
</defs>
</svg>
