<svg width="33" height="33" viewBox="0 0 33 33" fill="none" xmlns="http://www.w3.org/2000/svg">
<g clip-path="url(#clip0_1210_2978)">
<path d="M10.7242 29.4303C22.976 29.4303 29.6791 19.2774 29.6791 10.4754C29.6791 10.19 29.6727 9.89824 29.6601 9.61281C30.964 8.66981 32.0893 7.50178 32.9831 6.16358C31.7686 6.70389 30.4793 7.05677 29.159 7.21015C30.5491 6.37685 31.59 5.06778 32.0887 3.5256C30.7809 4.30067 29.3507 4.84741 27.8593 5.14239C26.8545 4.0747 25.5259 3.36776 24.079 3.13087C22.6321 2.89399 21.1474 3.14034 19.8546 3.83186C18.5617 4.52337 17.5327 5.62153 16.9265 6.95654C16.3204 8.29155 16.1709 9.78906 16.5012 11.2175C13.8531 11.0847 11.2624 10.3967 8.89723 9.1984C6.53201 8.00005 4.44502 6.31803 2.77157 4.26137C1.92103 5.7278 1.66076 7.46306 2.04366 9.11449C2.42656 10.7659 3.4239 12.2096 4.83298 13.1521C3.77513 13.1185 2.74045 12.8337 1.81443 12.3212V12.4037C1.81349 13.9426 2.3455 15.4343 3.32005 16.6253C4.29459 17.8163 5.65152 18.6331 7.16016 18.9368C6.18023 19.2049 5.15175 19.2439 4.1543 19.0509C4.58001 20.3744 5.40829 21.5319 6.52354 22.362C7.63879 23.1921 8.98537 23.6533 10.3753 23.6812C8.01558 25.5348 5.10059 26.5402 2.09986 26.5355C1.56771 26.5346 1.03608 26.502 0.507812 26.4378C3.55623 28.3935 7.10236 29.4322 10.7242 29.4303Z" fill="black"/>
</g>
<defs>
<clipPath id="clip0_1210_2978">
<rect width="32.4752" height="32.4752" fill="white" transform="translate(0.507812 -0.00012207)"/>
</clipPath>
</defs>
</svg>
